<?xml version="1.0" encoding="UTF-8" standalone="no"?>
<!-- Created with Inkscape (http://www.inkscape.org/) -->

<svg
   xmlns:dc="http://purl.org/dc/elements/1.1/"
   xmlns:cc="http://creativecommons.org/ns#"
   xmlns:rdf="http://www.w3.org/1999/02/22-rdf-syntax-ns#"
   xmlns:svg="http://www.w3.org/2000/svg"
   xmlns="http://www.w3.org/2000/svg"
   xmlns:sodipodi="http://sodipodi.sourceforge.net/DTD/sodipodi-0.dtd"
   xmlns:inkscape="http://www.inkscape.org/namespaces/inkscape"
   width="42.239056mm"
   height="12.401872mm"
   viewBox="0 0 42.239056 12.401872"
   version="1.1"
   id="svg5862"
   inkscape:version="0.92.1 r15371"
   sodipodi:docname="logo.svg">
  <defs
     id="defs5856">
    <linearGradient
       id="SVGID_799754"
       gradientUnits="userSpaceOnUse"
       gradientTransform="translate(1.3,-18.46)"
       x1="-1.3065053"
       y1="-4.3976402"
       x2="-1.3065053"
       y2="24.60236">
      <stop
         offset="0%"
         style="stop-color:rgb(180,236,81);stop-opacity: 1"
         id="stop5707" />
      <stop
         offset="100%"
         style="stop-color:rgb(66,147,33);stop-opacity: 1"
         id="stop5709" />
    </linearGradient>
  </defs>
  <sodipodi:namedview
     id="base"
     pagecolor="#ffffff"
     bordercolor="#666666"
     borderopacity="1.0"
     inkscape:pageopacity="0.0"
     inkscape:pageshadow="2"
     inkscape:zoom="0.35"
     inkscape:cx="-410.17816"
     inkscape:cy="-22.277664"
     inkscape:document-units="mm"
     inkscape:current-layer="layer1"
     showgrid="false"
     inkscape:window-width="1920"
     inkscape:window-height="1017"
     inkscape:window-x="-8"
     inkscape:window-y="-8"
     inkscape:window-maximized="1" />
  <metadata
     id="metadata5859">
    <rdf:RDF>
      <cc:Work
         rdf:about="">
        <dc:format>image/svg+xml</dc:format>
        <dc:type
           rdf:resource="http://purl.org/dc/dcmitype/StillImage" />
        <dc:title></dc:title>
      </cc:Work>
    </rdf:RDF>
  </metadata>
  <g
     inkscape:label="Layer 1"
     inkscape:groupmode="layer"
     id="layer1"
     transform="translate(-91.517377,-130.53716)">
    <g
       transform="matrix(0.07633347,0,0,0.07633347,85.877804,126.69416)"
       id="g5802">
      <g
         transform="matrix(0.95782194,0,0,0.95782194,154.8158,131.57975)"
         id="logo-logo-9">
        <g
           style="paint-order:stroke"
           id="g5698">
          <g
             transform="matrix(0.73642006,0,0,0.73642006,13.712323,-42.312018)"
             id="g5652">
            <path
               inkscape:connector-curvature="0"
               style="opacity:1;fill:#d32a57;fill-rule:nonzero;stroke:none;stroke-width:1;stroke-linecap:butt;stroke-linejoin:miter;stroke-miterlimit:4;stroke-dasharray:none;stroke-dashoffset:0;paint-order:stroke"
               transform="translate(-318.62018,-142.5436)"
               d="m 323.01465,184.55664 -7.56934,-7.56934 19.41699,-19.41796 c 6.83497,-6.83594 9.52735,-16.88379 7.02637,-26.22266 -2.5039,-9.33691 -9.85937,-16.69238 -19.19629,-19.19434 -9.34179,-2.50195 -19.38769,0.19043 -26.22265,7.02539 l -5.16993,5.16993 -7.56933,-7.56934 5.16992,-5.16992 c 9.53125,-9.53125 23.54297,-13.285158 36.5625,-9.7959 13.01856,3.48828 23.27539,13.74414 26.76563,26.76367 3.48828,13.02149 -0.26563,27.03125 -9.79688,36.5625 z"
               id="path5650" />
          </g>
          <g
             transform="matrix(0.73642006,0,0,0.73642006,-31.389206,-39.436763)"
             id="g5656">
            <path
               inkscape:connector-curvature="0"
               style="opacity:1;fill:#d32a57;fill-rule:nonzero;stroke:none;stroke-width:1;stroke-linecap:butt;stroke-linejoin:miter;stroke-miterlimit:4;stroke-dasharray:none;stroke-dashoffset:0;paint-order:stroke"
               transform="translate(-257.37588,-146.44797)"
               d="m 287.79248,175.11816 -7.10693,-26.52441 c -2.50244,-9.33691 -9.85791,-16.69238 -19.19678,-19.19531 -9.33838,-2.50098 -19.38623,0.1914 -26.22168,7.02734 -6.83594,6.83594 -9.52783,16.88281 -7.02588,26.2207 l 1.8916,7.0625 -10.33984,2.77051 -1.8916,-7.0625 c -3.48926,-13.02051 0.26465,-27.02929 9.79638,-36.56054 9.53125,-9.53125 23.54102,-13.28516 36.56153,-9.79786 13.02099,3.48926 23.27734,13.74414 26.76611,26.76465 l 7.10693,26.52442 z"
               id="path5654" />
          </g>
          <g
             transform="matrix(0.73642006,0,0,0.73642006,-45.630918,12.925962)"
             id="g5660">
            <path
               inkscape:connector-curvature="0"
               style="opacity:1;fill:#d32a57;fill-rule:nonzero;stroke:none;stroke-width:1;stroke-linecap:butt;stroke-linejoin:miter;stroke-miterlimit:4;stroke-dasharray:none;stroke-dashoffset:0;paint-order:stroke"
               transform="translate(-238.03677,-217.5524)"
               d="m 236.06201,255.70117 -7.06103,-1.8916 c -13.02002,-3.48828 -23.27588,-13.74512 -26.76465,-26.76562 -3.48926,-13.01856 0.26465,-27.0293 9.7959,-36.56153 9.53271,-9.53222 23.54345,-13.28515 36.56152,-9.79785 l 26.52539,7.10742 -2.77051,10.33985 -26.52539,-7.10743 c -9.33789,-2.50097 -19.38476,0.19141 -26.22119,7.02735 -6.83594,6.83691 -9.52783,16.88476 -7.02588,26.22265 2.50244,9.33692 9.85742,16.69239 19.19531,19.19532 l 7.06104,1.8916 z"
               id="path5658" />
          </g>
          <g
             transform="matrix(0.73642006,0,0,0.73642006,-13.710889,42.313255)"
             id="g5664">
            <path
               inkscape:connector-curvature="0"
               style="opacity:1;fill:#d32a57;fill-rule:nonzero;stroke:none;stroke-width:1;stroke-linecap:butt;stroke-linejoin:miter;stroke-miterlimit:4;stroke-dasharray:none;stroke-dashoffset:0;paint-order:stroke"
               transform="translate(-281.38163,-257.45801)"
               d="m 284.2876,299.4707 c -3.25537,0 -6.53223,-0.41992 -9.74903,-1.28222 -13.01904,-3.48731 -23.27539,-13.74317 -26.76513,-26.76465 -3.48877,-13.02149 0.26513,-27.03125 9.79638,-36.5625 l 19.41748,-19.41602 7.56934,7.56934 -19.41748,19.41601 c -6.83545,6.83692 -9.52783,16.88379 -7.02588,26.22168 2.50293,9.33985 9.8584,16.69532 19.19629,19.19629 9.33691,2.50196 19.38525,-0.18945 26.22168,-7.02636 l 5.16992,-5.16993 7.57031,7.57032 -5.16992,5.16992 c -7.17773,7.17676 -16.89355,11.07812 -26.81396,11.07812 z"
               id="path5662" />
          </g>
          <g
             transform="matrix(0.73642006,0,0,0.73642006,31.391335,39.436615)"
             id="g5668">
            <path
               inkscape:connector-curvature="0"
               style="opacity:1;fill:#d32a57;fill-rule:nonzero;stroke:none;stroke-width:1;stroke-linecap:butt;stroke-linejoin:miter;stroke-miterlimit:4;stroke-dasharray:none;stroke-dashoffset:0;paint-order:stroke"
               transform="translate(-342.62687,-253.55176)"
               d="m 345.48926,282.22266 c -3.25489,9.7e-4 -6.53125,-0.41993 -9.74707,-1.28125 -13.01953,-3.48829 -23.27637,-13.74317 -26.76563,-26.76368 l -7.10547,-26.52636 10.33985,-2.77051 7.10449,26.52637 c 2.50391,9.33691 9.85937,16.69238 19.19629,19.19433 9.33887,2.5 19.38672,-0.1914 26.22363,-7.02636 6.83594,-6.83692 9.52735,-16.88379 7.02539,-26.22071 l -1.89355,-7.06347 10.33984,-2.77051 1.89356,7.06347 c 3.48925,13.01758 -0.26368,27.02735 -9.7959,36.56055 -7.17774,7.17676 -16.89453,11.07813 -26.81543,11.07813 z"
               id="path5666" />
          </g>
          <g
             transform="matrix(0.73642006,0,0,0.73642006,45.631166,-12.925801)"
             id="g5672">
            <path
               inkscape:connector-curvature="0"
               style="opacity:1;fill:#d32a57;fill-rule:nonzero;stroke:none;stroke-width:1;stroke-linecap:butt;stroke-linejoin:miter;stroke-miterlimit:4;stroke-dasharray:none;stroke-dashoffset:0;paint-order:stroke"
               transform="translate(-361.96343,-182.44775)"
               d="m 361.15332,220.59668 c -3.25488,0 -6.53125,-0.41992 -9.74805,-1.28125 l -26.52441,-7.10938 2.76953,-10.33984 26.52539,7.10938 c 9.33887,2.5 19.38672,-0.19141 26.2207,-7.02735 6.83692,-6.83789 9.53028,-16.88476 7.02832,-26.22168 -2.50195,-9.33984 -9.85742,-16.69433 -19.19531,-19.19531 l -7.06152,-1.89258 2.77051,-10.33984 7.06054,1.8916 c 13.02149,3.48828 23.27735,13.74414 26.76563,26.76562 3.48828,13.01856 -0.26563,27.02832 -9.79785,36.56055 -7.17578,7.17774 -16.89258,11.08008 -26.81348,11.08008 z"
               id="path5670" />
          </g>
          <g
             transform="matrix(0.73642006,0,0,0.73642006,-22.558513,-43.586201)"
             id="g5676">
            <path
               inkscape:connector-curvature="0"
               style="opacity:1;fill:#f62e5b;fill-rule:nonzero;stroke:none;stroke-width:1;stroke-linecap:butt;stroke-linejoin:miter;stroke-miterlimit:4;stroke-dasharray:none;stroke-dashoffset:0;paint-order:stroke"
               transform="translate(-269.36726,-140.81336)"
               d="m 337.0625,132.6416 c -2.04004,-7.62012 -8.04199,-13.62207 -15.66406,-15.66504 -7.62012,-2.04101 -15.82032,0.15528 -21.39502,5.7334 l -1.92041,1.91992 c -7.12354,-10.00293 -17.57471,-17.47265 -29.75928,-20.73633 -18.41797,-4.936519 -38.24121,0.37403 -51.72803,13.85938 -13.48535,13.48535 -18.79638,33.30664 -13.86035,51.72852 l 2.69727,10.06543 10.33984,-2.76954 -2.69726,-10.0664 c -3.94874,-14.73926 0.30029,-30.59864 11.08984,-41.3877 10.79053,-10.79101 26.65088,-15.03808 41.38818,-11.08984 14.73877,3.94824 26.34815,15.55859 30.29785,30.29785 l 7.10694,26.52344 5.16992,-1.38526 3.78418,3.78467 19.41699,-19.41699 c 5.57715,-5.57813 7.77539,-13.77637 5.7334,-21.39551 z m -13.30273,13.82617 -12.86133,12.86182 -4.70703,-17.56885 c -0.68946,-2.57422 -1.58496,-5.06201 -2.63282,-7.46826 l 4.01368,-4.01318 c 2.88183,-2.88282 7.11816,-4.01758 11.05566,-2.96289 3.93848,1.05566 7.04004,4.15722 8.09473,8.09472 1.05468,3.9375 -0.0811,8.17481 -2.96289,11.05664 z"
               id="path5674" />
          </g>
          <g
             transform="matrix(0.73642006,0,0,0.73642006,-48.521306,1.8949534)"
             id="g5680">
            <path
               inkscape:connector-curvature="0"
               style="opacity:1;fill:#f62e5b;fill-rule:nonzero;stroke:none;stroke-width:1;stroke-linecap:butt;stroke-linejoin:miter;stroke-miterlimit:4;stroke-dasharray:none;stroke-dashoffset:0;paint-order:stroke"
               transform="translate(-234.11185,-202.57316)"
               d="m 282.9668,176.41113 -7.10694,-26.52441 c -2.04199,-7.61817 -8.04345,-13.62012 -15.66455,-15.66406 -7.61963,-2.04004 -15.81738,0.15625 -21.39599,5.73437 -5.57862,5.57813 -7.77491,13.77734 -5.73291,21.39746 l 0.69629,2.59912 c -12.22315,1.16846 -23.91358,6.50782 -32.83204,15.42627 -13.48584,13.48535 -18.79687,33.30664 -13.85986,51.72852 4.93555,18.4209 19.4458,32.93164 37.8667,37.86719 l 10.06396,2.69726 2.771,-10.33984 -10.06396,-2.69727 c -14.73926,-3.94922 -26.34864,-15.55957 -30.29786,-30.29785 -3.95019,-14.74023 0.29981,-30.59863 11.08985,-41.38867 10.78906,-10.79004 26.64697,-15.03809 41.38769,-11.08887 l 26.52344,7.10645 1.38525,-5.17041 z m -38.09522,-12.35888 -1.46533,-5.46827 c -1.05469,-3.93847 0.0801,-8.17578 2.96191,-11.05761 2.88379,-2.88184 7.1211,-4.0166 11.05664,-2.96289 3.93799,1.05566 7.04004,4.15722 8.09522,8.09375 l 4.70801,17.57031 -17.56885,-4.70703 c -2.57568,-0.69043 -5.17871,-1.17285 -7.7876,-1.46826 z"
               id="path5678" />
          </g>
          <g
             transform="matrix(0.73642006,0,0,0.73642006,-19.801401,40.601955)"
             id="g5684">
            <path
               inkscape:connector-curvature="0"
               style="opacity:1;fill:#f62e5b;fill-rule:nonzero;stroke:none;stroke-width:1;stroke-linecap:butt;stroke-linejoin:miter;stroke-miterlimit:4;stroke-dasharray:none;stroke-dashoffset:0;paint-order:stroke"
               transform="translate(-273.1112,-255.1342)"
               d="m 322.00195,284.55762 -7.36718,7.36816 c -10.79102,10.78906 -26.64942,15.03613 -41.38819,11.08985 -14.74072,-3.9502 -26.35058,-15.55958 -30.29931,-30.29883 -3.94971,-14.73926 0.2998,-30.59766 11.08984,-41.3877 l 19.41797,-19.41601 -3.78516,-3.78516 1.38526,-5.16992 -26.52491,-7.1084 c -7.61816,-2.04004 -15.81738,0.15625 -21.39746,5.73437 -5.57666,5.57813 -7.77295,13.77637 -5.73193,21.39747 2.04346,7.62011 8.04541,13.62109 15.66357,15.6621 l 2.59961,0.69629 c -5.10058,11.1709 -6.32129,23.96485 -3.05664,36.14746 4.93457,18.4209 19.44483,32.93067 37.86865,37.86817 4.55127,1.21973 9.18457,1.8125 13.79004,1.8125 14.03516,0 27.78369,-5.51953 37.93897,-15.67285 l 7.36621,-7.36817 z m -86.16699,-56.25391 c -3.93701,-1.05469 -7.03809,-4.15625 -8.09375,-8.09375 -1.05517,-3.93652 0.0801,-8.17383 2.96143,-11.05664 2.8833,-2.88184 7.12158,-4.01953 11.05761,-2.96289 l 17.56934,4.70801 -12.86182,12.86133 c -1.88525,1.88476 -3.60449,3.89746 -5.16455,6.00976 z"
               id="path5682" />
          </g>
          <g
             transform="matrix(0.73642006,0,0,0.73642006,22.559734,43.586169)"
             id="g5688">
            <path
               inkscape:connector-curvature="0"
               style="opacity:1;fill:#f62e5b;fill-rule:nonzero;stroke:none;stroke-width:1;stroke-linecap:butt;stroke-linejoin:miter;stroke-miterlimit:4;stroke-dasharray:none;stroke-dashoffset:0;paint-order:stroke"
               transform="translate(-330.63426,-259.18652)"
               d="m 397.2666,230.51855 -2.69726,-10.0664 -10.33985,2.77051 2.69727,10.0664 c 3.95019,14.73926 -0.29981,30.59766 -11.08985,41.3877 -10.79004,10.79004 -26.64941,15.03711 -41.38867,11.09082 -14.73828,-3.94824 -26.34668,-15.55762 -30.29687,-30.29785 l -7.10694,-26.52442 -5.16992,1.38477 -3.78467,-3.78418 -19.41943,19.41797 c -5.57715,5.58008 -7.77393,13.77929 -5.73193,21.3955 2.04101,7.62012 8.04248,13.62208 15.66357,15.66504 1.88232,0.50489 3.79932,0.75 5.7041,0.75 5.80615,0 11.49317,-2.28418 15.69238,-6.48437 l 1.92042,-1.91992 c 7.12304,10.0039 17.57519,17.47363 29.75878,20.7373 4.55079,1.21875 9.18653,1.81348 13.79102,1.81348 14.03613,0 27.7832,-5.52051 37.9375,-15.67481 13.48633,-13.48535 18.79687,-33.30664 13.86035,-51.72754 z M 292.42871,269.7207 c -2.88232,2.88282 -7.11914,4.01953 -11.05615,2.96387 -3.93799,-1.05566 -7.03906,-4.1582 -8.09424,-8.0957 -1.05469,-3.93653 0.0806,-8.17285 2.9624,-11.05567 l 12.86328,-12.86328 4.70752,17.57031 c 0.68946,2.57325 1.58399,5.06055 2.63184,7.46582 z"
               id="path5686" />
          </g>
          <g
             transform="matrix(0.73642006,0,0,0.73642006,48.521716,-1.8705105)"
             id="g5692">
            <path
               inkscape:connector-curvature="0"
               style="opacity:1;fill:#f62e5b;fill-rule:nonzero;stroke:none;stroke-width:1;stroke-linecap:butt;stroke-linejoin:miter;stroke-miterlimit:4;stroke-dasharray:none;stroke-dashoffset:0;paint-order:stroke"
               transform="translate(-365.88857,-197.45996)"
               d="m 412.92969,168.8916 c -4.93555,-18.4209 -19.44532,-32.93066 -37.86719,-37.86719 l -9.81934,-2.63086 -2.7705,10.33985 9.81933,2.63086 c 14.73926,3.95019 26.34863,15.55957 30.29785,30.29785 3.94922,14.74023 -0.2998,30.59961 -11.08984,41.38867 -10.79004,10.79004 -26.65039,15.03711 -41.3877,11.08985 l -26.52343,-7.10743 -1.38477,5.16993 -5.16992,1.38476 7.10742,26.52637 c 2.04297,7.61914 8.04492,13.62012 15.66309,15.66211 1.88281,0.50488 3.79883,0.75 5.70508,0.75 5.80468,0 11.49218,-2.28321 15.69335,-6.4834 5.57813,-5.58008 7.77442,-13.7793 5.73145,-21.39551 l -0.69629,-2.60058 c 12.22266,-1.16797 23.91309,-6.50782 32.83106,-15.42676 13.48632,-13.48438 18.79589,-33.30567 13.86035,-51.72852 z m -59.29688,83.58301 c -2.88281,2.88184 -7.12207,4.01855 -11.05664,2.96191 -3.9375,-1.05566 -7.03906,-4.15722 -8.09472,-8.09375 l -4.70801,-17.57031 17.56836,4.70801 c 2.57617,0.69043 5.17871,1.17383 7.78808,1.46875 l 1.46485,5.46973 c 1.05566,3.93457 -0.0801,8.17187 -2.96192,11.05566 z"
               id="path5690" />
          </g>
          <g
             transform="matrix(0.73642006,0,0,0.73642006,19.802472,-40.602348)"
             id="g5696">
            <path
               inkscape:connector-curvature="0"
               style="opacity:1;fill:#f62e5b;fill-rule:nonzero;stroke:none;stroke-width:1;stroke-linecap:butt;stroke-linejoin:miter;stroke-miterlimit:4;stroke-dasharray:none;stroke-dashoffset:0;paint-order:stroke"
               transform="translate(-326.89012,-144.8652)"
               d="m 382.59961,177.01758 c -2.04297,-7.62012 -8.0459,-13.6211 -15.66406,-15.66113 l -2.59766,-0.69629 c 5.10059,-11.16993 6.32031,-23.96387 3.05566,-36.14746 -4.93554,-18.4209 -19.44628,-32.930669 -37.86718,-37.866216 -18.4209,-4.938476 -38.24219,0.374024 -51.72754,13.859376 l -7.36768,7.36719 7.56934,7.56933 7.36767,-7.36718 c 10.78955,-10.789067 26.64746,-15.039067 41.3877,-11.088872 14.73926,3.949222 26.34863,15.558592 30.29785,30.297852 3.9502,14.73926 -0.29883,30.59863 -11.08887,41.3877 l -19.41797,19.41601 3.78516,3.78516 -1.38574,5.16992 26.52539,7.10742 c 1.88086,0.50293 3.7959,0.74805 5.69922,0.74805 5.80664,0 11.49512,-2.28321 15.69531,-6.48242 5.57617,-5.57618 7.77441,-13.77442 5.7334,-21.39844 z m -13.30274,13.82812 c -2.88378,2.88184 -7.12109,4.01465 -11.05664,2.96387 l -17.56738,-4.70703 12.86133,-12.86035 c 1.88574,-1.88574 3.60547,-3.89893 5.16504,-6.01074 l 5.4668,1.46484 c 3.93652,1.05469 7.03711,4.15625 8.09277,8.09277 1.05469,3.93848 -0.0801,8.17578 -2.96192,11.05664 z"
               id="path5694" />
          </g>
        </g>
      </g>
      <g
         transform="matrix(1.1171604,0,0,1.1171604,449.15988,106.13305)"
         id="text-logo-6">
        <g
           style="paint-order:stroke"
           id="g5704">
          <g
             id="text-logo-path-0-3">
            <path
               inkscape:connector-curvature="0"
               style="opacity:1;fill:#545455;fill-rule:nonzero;stroke:none;stroke-width:0;stroke-linecap:butt;stroke-linejoin:miter;stroke-miterlimit:4;stroke-dasharray:none;stroke-dashoffset:0;paint-order:stroke"
               transform="translate(-110.375,18.26)"
               d="m 40.5,-39.35 3.31,1.39 q -1.29,1.63 -2.92,3.24 -1.63,1.61 -3.41,3.07 -1.78,1.46 -3.65,2.71 -1.87,1.25 -3.69,2.26 v 0 q -0.53,-0.58 -1.23,-1.3 -0.69,-0.72 -1.36,-1.2 v 0 q 1.72,-0.86 3.55,-2.01 1.82,-1.15 3.55,-2.47 1.73,-1.32 3.24,-2.79 1.51,-1.46 2.61,-2.9 z M 28.17,-18.19 H 22.94 V 3.65 h -3.46 v -21.84 h -7.77 q -0.05,3.03 -0.38,5.98 -0.34,2.95 -1.11,5.76 -0.77,2.8 -2.11,5.44 -1.34,2.64 -3.5,4.99 v 0 Q 4.18,3.41 3.36,2.69 2.54,1.97 1.92,1.58 v 0 q 1.97,-2.11 3.17,-4.46 1.2,-2.35 1.92,-4.87 0.72,-2.52 1,-5.16 0.29,-2.64 0.34,-5.28 v 0 H 2.16 V -21.5 H 8.4 V -33.83 H 2.88 v -3.36 h 24.57 v 3.36 h -4.51 v 12.33 h 5.23 z M 11.76,-21.5 h 7.72 v -12.33 h -7.72 z m 30.13,-4.75 3.27,1.39 q -1.39,1.73 -3.12,3.43 -1.73,1.71 -3.65,3.27 -1.92,1.56 -3.91,2.92 -1.99,1.37 -3.91,2.47 v 0 q -0.48,-0.57 -1.15,-1.29 -0.67,-0.72 -1.35,-1.25 v 0 q 1.83,-0.91 3.77,-2.16 1.94,-1.25 3.77,-2.69 1.82,-1.44 3.45,-2.99 1.64,-1.56 2.83,-3.1 z m 1.06,12.91 3.36,1.29 q -1.49,2.5 -3.5,4.78 -2.02,2.28 -4.37,4.27 -2.35,1.99 -4.97,3.67 -2.61,1.68 -5.4,2.98 v 0 Q 27.64,2.98 26.95,2.16 26.25,1.34 25.58,0.82 v 0 q 2.64,-1.11 5.18,-2.62 2.54,-1.51 4.82,-3.33 2.28,-1.83 4.16,-3.92 1.87,-2.08 3.21,-4.29 z m 47.8,-15.6 h 11.47 v 2.93 H 61.23 v -2.93 h 11.09 q -0.29,-0.96 -0.74,-2.04 -0.46,-1.08 -0.99,-2.04 v 0 l 3.03,-0.67 H 63.39 v -2.93 h 17.14 q -0.39,-0.81 -0.82,-1.63 -0.43,-0.81 -0.86,-1.53 v 0 l 3.45,-0.72 q 0.63,0.81 1.18,1.87 0.55,1.05 0.98,2.01 v 0 h 15.31 v 2.93 h -9.55 l 2.78,0.63 q -0.57,1.1 -1.15,2.13 -0.57,1.03 -1.1,1.99 z m -1.44,-4.75 H 73.9 q 0.68,1.11 1.25,2.4 0.58,1.3 0.87,2.35 v 0 H 87.1 q 0.62,-1.1 1.22,-2.4 0.6,-1.29 0.99,-2.35 z m 7.34,10.08 V -9.74 H 80 q 0.96,0.48 1.92,1.1 0.96,0.63 1.87,1.25 0.91,0.62 1.7,1.22 0.8,0.6 1.37,1.13 v 0 l -2.21,2.21 q -0.57,-0.58 -1.44,-1.27 -0.86,-0.7 -1.87,-1.42 -1.01,-0.72 -2.06,-1.41 -1.06,-0.7 -2.06,-1.28 v 0 l 1.63,-1.53 H 66.8 v -13.87 z m -3.5,5.76 v -3.31 H 70.21 v 3.31 z m 0,5.66 V -15.5 H 70.21 v 3.31 z m -0.05,5.38 2.83,-1.25 q 0.91,0.91 1.82,1.97 0.92,1.05 1.76,2.15 0.84,1.11 1.56,2.16 0.72,1.06 1.15,1.92 v 0 L 99.19,1.68 Q 98.81,0.77 98.14,-0.31 97.47,-1.39 96.65,-2.5 95.83,-3.6 94.92,-4.73 94.01,-5.85 93.1,-6.81 Z M 63.59,2.4 60.71,0.72 q 0.91,-0.82 1.75,-1.82 0.84,-1.01 1.56,-2.12 0.72,-1.1 1.32,-2.23 0.6,-1.12 1.03,-2.18 v 0 l 2.97,1.34 q -0.48,1.06 -1.1,2.23 -0.62,1.18 -1.34,2.33 -0.72,1.15 -1.56,2.21 Q 64.5,1.54 63.59,2.4 Z M 78.37,0.29 h 8.39 q 0.77,0 1.25,-0.17 0.48,-0.17 0.75,-0.67 0.26,-0.51 0.38,-1.47 0.12,-0.96 0.22,-2.54 v 0 q 0.57,0.38 1.48,0.72 0.92,0.34 1.59,0.53 v 0 q -0.15,1.97 -0.46,3.24 -0.31,1.27 -0.91,2.01 -0.6,0.75 -1.56,1.04 -0.96,0.28 -2.4,0.28 v 0 h -9.02 q -1.82,0 -3,-0.19 Q 73.9,2.88 73.21,2.38 72.51,1.87 72.22,1.06 71.94,0.24 71.94,-1.06 v 0 -6.19 h 3.5 v 6.19 q 0,0.82 0.53,1.08 0.53,0.27 2.4,0.27 z m 60.56,-19.97 -2.5,2.45 q -0.52,-0.43 -1.39,-1.1 -0.86,-0.67 -1.89,-1.42 -1.03,-0.74 -2.09,-1.49 -1.06,-0.74 -1.97,-1.36 v 0 q -1.25,2.06 -3.5,4.03 -2.26,1.97 -6.05,3.69 v 0 q -0.33,-0.57 -0.98,-1.32 -0.65,-0.74 -1.27,-1.12 v 0 q 2.3,-0.92 3.93,-1.95 1.63,-1.03 2.78,-2.11 1.16,-1.08 1.85,-2.21 0.7,-1.12 1.08,-2.23 v 0 h -9.21 v -2.93 h 9.84 q 0.09,-0.48 0.09,-0.88 0,-0.41 0,-0.84 v 0 -2.79 h -4.03 q -1.39,2.5 -3.02,4.27 v 0 q -0.53,-0.38 -1.39,-0.91 -0.87,-0.53 -1.49,-0.81 v 0 q 1.82,-1.78 3.21,-4.3 1.4,-2.52 2.21,-5.25 v 0 l 3.22,0.62 q -0.24,0.91 -0.58,1.78 -0.34,0.86 -0.72,1.72 v 0 h 13.05 v 2.88 h -7.05 v 2.79 q 0,0.43 0,0.84 0,0.4 -0.1,0.88 v 0 h 8.35 v 2.93 h -8.87 q -0.05,0.24 -0.1,0.41 -0.05,0.17 -0.14,0.41 v 0 q 0.72,0.38 1.96,1.13 1.25,0.74 2.59,1.55 1.35,0.82 2.52,1.54 1.18,0.72 1.66,1.1 z m 2.35,-16.6 h 16.75 v 16.65 h -16.75 z m 13.25,13.39 v -10.17 h -9.89 v 10.17 z M 124.68,3.7 v -19.68 h 29.27 V 3.6 h -3.6 V 1.92 H 128.18 V 3.7 Z m 25.67,-16.75 h -22.17 v 4.51 h 22.17 z m -22.17,12.04 h 22.17 v -4.75 h -22.17 z m 59.6,-35.08 2.93,-1.2 q 0.91,1.2 1.85,2.57 0.93,1.37 1.77,2.76 0.84,1.39 1.49,2.69 0.65,1.29 1.03,2.35 v 0 l -3.12,1.39 q -0.43,-1.2 -1.05,-2.54 v 0 q -4.9,0.33 -7.85,0.57 -2.95,0.24 -4.58,0.43 -1.63,0.2 -2.31,0.32 -0.67,0.12 -1.05,0.26 v 0 q -0.05,-0.29 -0.19,-0.72 -0.15,-0.43 -0.29,-0.91 -0.14,-0.48 -0.34,-0.94 -0.19,-0.45 -0.33,-0.79 v 0 q 0.91,-0.24 2.04,-1.63 1.12,-1.39 2.18,-3.12 1.06,-1.73 1.87,-3.34 0.82,-1.6 1.11,-2.32 v 0 l 3.64,1.15 q -1.24,2.4 -2.78,4.73 -1.54,2.32 -3.07,4.24 v 0 l 10.51,-0.62 q -0.82,-1.39 -1.71,-2.76 -0.88,-1.37 -1.75,-2.57 z m 25.34,16.89 h -8.25 q -1.68,0 -2.79,-0.24 -1.1,-0.24 -1.75,-0.81 -0.65,-0.58 -0.89,-1.54 -0.24,-0.96 -0.24,-2.4 v 0 -15.83 h 3.46 v 8.01 q 3.07,-1.01 6.07,-2.23 3,-1.22 5.06,-2.28 v 0 l 2.4,2.59 q -2.88,1.35 -6.48,2.57 -3.6,1.22 -7.05,2.28 v 0 4.85 q 0,1.1 0.46,1.46 0.45,0.36 2.08,0.36 v 0 h 7.63 q 0.68,0 1.11,-0.19 0.43,-0.2 0.69,-0.79 0.27,-0.6 0.39,-1.71 0.12,-1.1 0.21,-2.88 v 0 q 0.53,0.48 1.47,0.84 0.93,0.36 1.7,0.55 v 0 q -0.14,2.16 -0.46,3.58 -0.31,1.41 -0.91,2.28 -0.6,0.86 -1.53,1.2 -0.94,0.33 -2.38,0.33 z m -18.43,-3.98 v 22.75 q 0,1.39 -0.33,2.16 -0.34,0.77 -1.35,1.2 v 0 q -0.96,0.43 -2.52,0.53 -1.56,0.09 -3.86,0.09 v 0 q -0.14,-0.72 -0.45,-1.65 -0.32,-0.94 -0.7,-1.61 v 0 q 1.68,0.09 3.05,0.07 1.36,-0.02 1.84,-0.07 v 0 q 0.53,0 0.68,-0.15 0.14,-0.14 0.14,-0.62 v 0 -5.61 h -10.13 v 9.74 h -3.31 v -26.83 z m -3.5,3.02 h -10.13 v 4.08 h 10.13 z M 205.35,0.1 h 7.72 q 0.72,0 1.2,-0.24 0.48,-0.24 0.75,-0.92 0.26,-0.67 0.4,-1.89 0.15,-1.23 0.24,-3.24 v 0 q 0.58,0.38 1.49,0.77 0.91,0.38 1.68,0.53 v 0 q -0.14,2.44 -0.45,4 -0.32,1.56 -0.94,2.5 -0.62,0.93 -1.61,1.29 -0.98,0.36 -2.47,0.36 v 0 h -8.35 q -1.73,0 -2.85,-0.24 -1.13,-0.24 -1.78,-0.81 -0.65,-0.58 -0.91,-1.54 -0.27,-0.96 -0.27,-2.45 v 0 -16.07 h 3.51 v 7.53 q 1.63,-0.53 3.26,-1.13 1.63,-0.6 3.17,-1.22 1.53,-0.62 2.88,-1.29 1.34,-0.68 2.35,-1.35 v 0 l 2.35,2.64 q -1.34,0.82 -3.02,1.56 -1.68,0.74 -3.53,1.42 -1.85,0.67 -3.74,1.24 -1.9,0.58 -3.72,1.11 v 0 5.56 q 0,1.2 0.48,1.54 0.48,0.34 2.16,0.34 z m -24.29,-8.98 h 10.13 v -4.37 h -10.13 z"
               id="path5701" />
          </g>
        </g>
      </g>
      <g
         transform="matrix(1.1124892,0,0,1.1124892,449.65985,155.29854)"
         id="tagline-4f6e31b1-0db3-4ae2-bea4-be4c9212f4e7-logo-2">
        <g
           style="paint-order:stroke"
           id="g5715">
          <g
             id="tagline-4f6e31b1-0db3-4ae2-bea4-be4c9212f4e7-logo-path-0-9">
            <linearGradient
               id="linearGradient5849"
               gradientUnits="userSpaceOnUse"
               gradientTransform="translate(1.3,-18.46)"
               x1="-1.3065053"
               y1="-4.3976402"
               x2="-1.3065053"
               y2="24.60236">
              <stop
                 offset="0%"
                 style="stop-color:rgb(180,236,81);stop-opacity: 1"
                 id="stop5845" />
              <stop
                 offset="100%"
                 style="stop-color:rgb(66,147,33);stop-opacity: 1"
                 id="stop5847" />
            </linearGradient>
            <path
               inkscape:connector-curvature="0"
               style="opacity:1;fill:url(#SVGID_799754);fill-rule:nonzero;stroke:none;stroke-width:0;stroke-linecap:butt;stroke-linejoin:miter;stroke-miterlimit:4;stroke-dasharray:none;stroke-dashoffset:0;paint-order:stroke"
               transform="translate(-160.915,9.1)"
               d="m 9.49,0.26 c 4.34,0 6.6,-0.94 7.54,-2.63 0.44,-0.85 0.68,-1.95 0.68,-3.3 0,-3.53 -1.64,-5.25 -6.24,-5.25 H 9.49 c -1.82,0 -2.86,0 -3.38,-0.52 -0.23,-0.23 -0.36,-0.65 -0.36,-1.22 0,-1.17 0.31,-1.72 1.37,-1.98 0.52,-0.13 1.33,-0.18 2.4,-0.18 1.53,0 2.31,0.13 2.83,0.94 0.26,0.39 0.39,1.01 0.39,1.82 h 4.45 c 0,-4.79 -2.6,-6.4 -7.67,-6.4 -4.35,0 -6.61,0.94 -7.52,2.63 -0.47,0.85 -0.7,1.95 -0.7,3.3 0,3.53 1.64,5.25 6.24,5.25 h 1.95 c 1.74,0 2.86,0.1 3.41,0.62 0.23,0.26 0.36,0.63 0.36,1.12 0,1.17 -0.31,1.69 -1.35,1.95 -0.55,0.13 -1.35,0.21 -2.42,0.21 -1.87,0 -2.81,-0.16 -3.33,-0.94 C 5.88,-4.71 5.75,-5.3 5.75,-6.14 H 1.3 c 0,3.31 1.27,5.07 3.67,5.83 1.17,0.39 2.67,0.57 4.52,0.57 z M 45.14,0 h 4.42 v -18.2 h -4.42 v 7.28 H 36.56 V -18.2 H 32.14 V 0 h 4.42 v -7.28 h 8.58 z m 32.89,0 h 4.42 L 75.56,-18.2 H 70.88 L 63.99,0 h 4.42 l 1.27,-3.38 h 7.07 z m -2.66,-7.02 h -4.31 l 2.16,-5.69 z M 96.88,0 h 4.42 v -5.2 h 4.68 c 4.34,0 6.42,-2.03 6.42,-6.53 0,-4.29 -2.03,-6.47 -6.42,-6.47 h -9.1 z m 9.1,-8.84 h -4.68 v -5.72 h 4.6 c 1.38,0 2.08,0.88 2.08,2.86 0,1.9 -0.68,2.86 -2,2.86 z M 126.83,0 h 14.82 v -3.64 h -10.4 v -3.64 h 7.8 v -3.64 h -7.8 v -3.64 h 10.4 v -3.64 h -14.82 z m 60.32,0 h 4.42 l -6.89,-18.2 H 180 L 173.11,0 h 4.42 l 1.27,-3.38 h 7.07 z m -2.65,-7.02 h -4.32 l 2.16,-5.69 z M 206,0 h 4.42 V -18.2 H 206 Z m 35.88,0 h 4.42 v -5.2 h 4.68 c 4.34,0 6.42,-2.03 6.42,-6.53 0,-4.29 -2.03,-6.47 -6.42,-6.47 h -9.1 z m 9.1,-8.84 h -4.68 v -5.72 h 4.6 c 1.38,0 2.08,0.88 2.08,2.86 0,1.9 -0.68,2.86 -2,2.86 z m 29.59,9.1 c 5.82,0 8.71,-2.73 8.71,-8.74 l -0.03,-9.72 h -4.42 v 10.53 c 0,2.89 -1.35,4.29 -4.26,4.29 -2.89,0 -4.29,-1.35 -4.29,-4.29 l -0.03,-10.53 h -4.42 v 9.72 c 0,5.83 2.73,8.74 8.74,8.74 z M 303.71,0 h 11.1 c 3.85,0 5.72,-1.77 5.72,-5.72 0,-2.55 -0.83,-4.24 -2.47,-5.07 0.78,-0.78 1.17,-1.82 1.17,-3.12 0,-2.63 -1.72,-4.29 -4.29,-4.29 h -11.23 z m 11.1,-3.64 h -6.68 V -7.8 h 6.68 c 0.91,0 1.3,0.62 1.3,2.08 0,1.38 -0.39,2.08 -1.3,2.08 z m -0.86,-7.8 h -5.82 v -3.12 h 5.82 c 0.52,0 0.86,0.65 0.86,1.56 0,0.94 -0.37,1.56 -0.86,1.56 z"
               id="path5712" />
          </g>
        </g>
      </g>
    </g>
  </g>
</svg>
